<svg width="60" height="66" viewBox="0 0 60 66" fill="none" xmlns="http://www.w3.org/2000/svg">
<g filter="url(#filter0_d_829_4831)">
<rect width="52" height="57.5" transform="translate(4 2)" fill="#101012"/>
<path d="M30 2C15.6406 2 4 13.6406 4 28C4 39.0067 10.8393 48.4159 20.5 52.2098C21.8333 52.8065 24.4802 54.4802 25.5 55.5C27 57 28.5 59.5 30 59.5C31.5 59.5 33 57 34.5 55.5C35.5198 54.4802 38.1667 52.8065 39.5 52.2098C49.1607 48.4159 56 39.0067 56 28C56 13.6406 44.3594 2 30 2Z" fill="white"/>
<circle cx="30" cy="28" r="23" fill="white" stroke="url(#paint0_linear_829_4831)" stroke-width="2"/>
<circle cx="30" cy="28" r="20" fill="#F2F3FA"/>
</g>
<defs>
<filter id="filter0_d_829_4831" x="0" y="0" width="60" height="65.5" filterUnits="userSpaceOnUse" color-interpolation-filters="sRGB">
<feFlood flood-opacity="0" result="BackgroundImageFix"/>
<feColorMatrix in="SourceAlpha" type="matrix" values="0 0 0 0 0 0 0 0 0 0 0 0 0 0 0 0 0 0 127 0" result="hardAlpha"/>
<feOffset dy="2"/>
<feGaussianBlur stdDeviation="2"/>
<feComposite in2="hardAlpha" operator="out"/>
<feColorMatrix type="matrix" values="0 0 0 0 0.133333 0 0 0 0 0.155294 0 0 0 0 0.178824 0 0 0 0.15 0"/>
<feBlend mode="normal" in2="BackgroundImageFix" result="effect1_dropShadow_829_4831"/>
<feBlend mode="normal" in="SourceGraphic" in2="effect1_dropShadow_829_4831" result="shape"/>
</filter>
<linearGradient id="paint0_linear_829_4831" x1="6.00002" y1="4" x2="54" y2="52" gradientUnits="userSpaceOnUse">
<stop stop-color="#FF9900"/>
<stop offset="1" stop-color="#A05600"/>
</linearGradient>
</defs>
</svg>
